<mxfile host="app.diagrams.net" modified="2021-03-27T09:09:57.086Z" agent="5.0 (Windows NT 6.1; Win64; x64) AppleWebKit/537.36 (KHTML, like Gecko) Chrome/89.0.4389.72 Safari/537.36" etag="uRnbsBjBdPkBT4QxWWE7" version="14.2.9" type="github">
  <diagram id="C5RBs43oDa-KdzZeNtuy" name="Page-1">
    <mxGraphModel dx="860" dy="474" grid="1" gridSize="10" guides="1" tooltips="1" connect="1" arrows="1" fold="1" page="1" pageScale="1" pageWidth="827" pageHeight="1169" math="0" shadow="0">
      <root>
        <mxCell id="WIyWlLk6GJQsqaUBKTNV-0" />
        <mxCell id="WIyWlLk6GJQsqaUBKTNV-1" parent="WIyWlLk6GJQsqaUBKTNV-0" />
        <mxCell id="Fjoff4jlCAaeLGBaDcvt-0" value="" style="edgeStyle=orthogonalEdgeStyle;rounded=0;orthogonalLoop=1;jettySize=auto;html=1;" edge="1" parent="WIyWlLk6GJQsqaUBKTNV-1" source="Fjoff4jlCAaeLGBaDcvt-1" target="Fjoff4jlCAaeLGBaDcvt-4">
          <mxGeometry relative="1" as="geometry" />
        </mxCell>
        <mxCell id="Fjoff4jlCAaeLGBaDcvt-1" value="开始" style="rounded=1;whiteSpace=wrap;html=1;fontSize=12;glass=0;strokeWidth=1;shadow=0;" vertex="1" parent="WIyWlLk6GJQsqaUBKTNV-1">
          <mxGeometry x="160" y="80" width="120" height="40" as="geometry" />
        </mxCell>
        <mxCell id="Fjoff4jlCAaeLGBaDcvt-3" value="结束" style="rounded=1;whiteSpace=wrap;html=1;fontSize=12;glass=0;strokeWidth=1;shadow=0;" vertex="1" parent="WIyWlLk6GJQsqaUBKTNV-1">
          <mxGeometry x="160" y="780" width="120" height="40" as="geometry" />
        </mxCell>
        <mxCell id="Fjoff4jlCAaeLGBaDcvt-8" value="" style="edgeStyle=orthogonalEdgeStyle;rounded=0;orthogonalLoop=1;jettySize=auto;html=1;" edge="1" parent="WIyWlLk6GJQsqaUBKTNV-1" source="Fjoff4jlCAaeLGBaDcvt-4" target="Fjoff4jlCAaeLGBaDcvt-7">
          <mxGeometry relative="1" as="geometry" />
        </mxCell>
        <mxCell id="Fjoff4jlCAaeLGBaDcvt-4" value="设备信息入库流程" style="shape=process;whiteSpace=wrap;html=1;backgroundOutline=1;rounded=1;shadow=0;strokeWidth=1;glass=0;" vertex="1" parent="WIyWlLk6GJQsqaUBKTNV-1">
          <mxGeometry x="160" y="190" width="120" height="60" as="geometry" />
        </mxCell>
        <mxCell id="Fjoff4jlCAaeLGBaDcvt-16" value="" style="edgeStyle=orthogonalEdgeStyle;rounded=0;orthogonalLoop=1;jettySize=auto;html=1;" edge="1" parent="WIyWlLk6GJQsqaUBKTNV-1" source="Fjoff4jlCAaeLGBaDcvt-5" target="Fjoff4jlCAaeLGBaDcvt-15">
          <mxGeometry relative="1" as="geometry" />
        </mxCell>
        <mxCell id="Fjoff4jlCAaeLGBaDcvt-5" value="获得三元组&lt;br&gt;pk\dk\ds" style="whiteSpace=wrap;html=1;rounded=1;shadow=0;strokeWidth=1;glass=0;" vertex="1" parent="WIyWlLk6GJQsqaUBKTNV-1">
          <mxGeometry x="160" y="440" width="120" height="60" as="geometry" />
        </mxCell>
        <mxCell id="Fjoff4jlCAaeLGBaDcvt-9" value="" style="edgeStyle=orthogonalEdgeStyle;rounded=0;orthogonalLoop=1;jettySize=auto;html=1;" edge="1" parent="WIyWlLk6GJQsqaUBKTNV-1" source="Fjoff4jlCAaeLGBaDcvt-7" target="Fjoff4jlCAaeLGBaDcvt-5">
          <mxGeometry relative="1" as="geometry" />
        </mxCell>
        <mxCell id="Fjoff4jlCAaeLGBaDcvt-12" value="" style="edgeStyle=orthogonalEdgeStyle;rounded=0;orthogonalLoop=1;jettySize=auto;html=1;" edge="1" parent="WIyWlLk6GJQsqaUBKTNV-1" source="Fjoff4jlCAaeLGBaDcvt-7" target="Fjoff4jlCAaeLGBaDcvt-11">
          <mxGeometry relative="1" as="geometry" />
        </mxCell>
        <mxCell id="Fjoff4jlCAaeLGBaDcvt-7" value="是否存在三元组" style="rhombus;whiteSpace=wrap;html=1;rounded=1;shadow=0;strokeWidth=1;glass=0;" vertex="1" parent="WIyWlLk6GJQsqaUBKTNV-1">
          <mxGeometry x="180" y="320" width="80" height="80" as="geometry" />
        </mxCell>
        <mxCell id="Fjoff4jlCAaeLGBaDcvt-10" value="是" style="text;html=1;align=center;verticalAlign=middle;resizable=0;points=[];autosize=1;" vertex="1" parent="WIyWlLk6GJQsqaUBKTNV-1">
          <mxGeometry x="225" y="400" width="30" height="20" as="geometry" />
        </mxCell>
        <mxCell id="Fjoff4jlCAaeLGBaDcvt-14" style="edgeStyle=orthogonalEdgeStyle;rounded=0;orthogonalLoop=1;jettySize=auto;html=1;entryX=1;entryY=0.5;entryDx=0;entryDy=0;" edge="1" parent="WIyWlLk6GJQsqaUBKTNV-1" source="Fjoff4jlCAaeLGBaDcvt-11" target="Fjoff4jlCAaeLGBaDcvt-5">
          <mxGeometry relative="1" as="geometry">
            <Array as="points">
              <mxPoint x="380" y="470" />
            </Array>
          </mxGeometry>
        </mxCell>
        <mxCell id="Fjoff4jlCAaeLGBaDcvt-11" value="生成三元组" style="whiteSpace=wrap;html=1;rounded=1;shadow=0;strokeWidth=1;glass=0;" vertex="1" parent="WIyWlLk6GJQsqaUBKTNV-1">
          <mxGeometry x="320" y="330" width="120" height="60" as="geometry" />
        </mxCell>
        <mxCell id="Fjoff4jlCAaeLGBaDcvt-13" value="否" style="text;html=1;align=center;verticalAlign=middle;resizable=0;points=[];autosize=1;" vertex="1" parent="WIyWlLk6GJQsqaUBKTNV-1">
          <mxGeometry x="265" y="330" width="30" height="20" as="geometry" />
        </mxCell>
        <mxCell id="Fjoff4jlCAaeLGBaDcvt-19" value="" style="edgeStyle=orthogonalEdgeStyle;rounded=0;orthogonalLoop=1;jettySize=auto;html=1;" edge="1" parent="WIyWlLk6GJQsqaUBKTNV-1" source="Fjoff4jlCAaeLGBaDcvt-15" target="Fjoff4jlCAaeLGBaDcvt-18">
          <mxGeometry relative="1" as="geometry" />
        </mxCell>
        <mxCell id="Fjoff4jlCAaeLGBaDcvt-15" value="根据三元组(http auth)及证书(双向验证)连接MQTT Broker" style="whiteSpace=wrap;html=1;rounded=1;shadow=0;strokeWidth=1;glass=0;" vertex="1" parent="WIyWlLk6GJQsqaUBKTNV-1">
          <mxGeometry x="160" y="540" width="120" height="60" as="geometry" />
        </mxCell>
        <mxCell id="Fjoff4jlCAaeLGBaDcvt-18" value="&lt;span&gt;获取Topic 集合&lt;/span&gt;&lt;br&gt;&lt;span&gt;(系统\自定义)&lt;/span&gt;" style="whiteSpace=wrap;html=1;rounded=1;shadow=0;strokeWidth=1;glass=0;" vertex="1" parent="WIyWlLk6GJQsqaUBKTNV-1">
          <mxGeometry x="160" y="640" width="120" height="60" as="geometry" />
        </mxCell>
      </root>
    </mxGraphModel>
  </diagram>
</mxfile>
